<mxfile host="app.diagrams.net" agent="Mozilla/5.0 (Windows NT 10.0; Win64; x64) AppleWebKit/537.36 (KHTML, like Gecko) Chrome/140.0.0.0 Safari/537.36" version="28.2.3">
  <diagram name="Page-1" id="9XBy7hcrAxQZzsxf4MfZ">
    <mxGraphModel dx="3930" dy="2255" grid="1" gridSize="10" guides="1" tooltips="1" connect="1" arrows="1" fold="1" page="1" pageScale="1" pageWidth="850" pageHeight="1100" math="0" shadow="0">
      <root>
        <mxCell id="0" />
        <mxCell id="1" parent="0" />
        <mxCell id="nML3Dv_sA6puckK2hfbV-55" value="" style="group" vertex="1" connectable="0" parent="1">
          <mxGeometry x="500" y="50" width="2410" height="970" as="geometry" />
        </mxCell>
        <mxCell id="nML3Dv_sA6puckK2hfbV-12" value="" style="group" vertex="1" connectable="0" parent="nML3Dv_sA6puckK2hfbV-55">
          <mxGeometry x="1260.4022988505747" y="840" width="997.2413793103448" height="130" as="geometry" />
        </mxCell>
        <mxCell id="nML3Dv_sA6puckK2hfbV-7" value="" style="shape=cylinder3;whiteSpace=wrap;html=1;boundedLbl=1;backgroundOutline=1;size=15;" vertex="1" parent="nML3Dv_sA6puckK2hfbV-12">
          <mxGeometry width="997.2413793103448" height="130" as="geometry" />
        </mxCell>
        <mxCell id="nML3Dv_sA6puckK2hfbV-11" value="Postgree" style="text;html=1;align=center;verticalAlign=middle;whiteSpace=wrap;rounded=0;" vertex="1" parent="nML3Dv_sA6puckK2hfbV-12">
          <mxGeometry x="268.48806366047745" y="54.888888888888886" width="460.2652519893899" height="21.666666666666668" as="geometry" />
        </mxCell>
        <mxCell id="nML3Dv_sA6puckK2hfbV-26" value="" style="group" vertex="1" connectable="0" parent="nML3Dv_sA6puckK2hfbV-55">
          <mxGeometry width="2410" height="700" as="geometry" />
        </mxCell>
        <mxCell id="nML3Dv_sA6puckK2hfbV-2" value="Decision Pulse" style="swimlane;whiteSpace=wrap;html=1;" vertex="1" parent="nML3Dv_sA6puckK2hfbV-26">
          <mxGeometry x="-139.9977011494253" y="10" width="2410" height="700" as="geometry" />
        </mxCell>
        <mxCell id="nML3Dv_sA6puckK2hfbV-22" style="edgeStyle=orthogonalEdgeStyle;rounded=0;orthogonalLoop=1;jettySize=auto;html=1;exitX=0.5;exitY=1;exitDx=0;exitDy=0;" edge="1" parent="nML3Dv_sA6puckK2hfbV-2" source="nML3Dv_sA6puckK2hfbV-3">
          <mxGeometry relative="1" as="geometry">
            <mxPoint x="685.603448275862" y="460" as="targetPoint" />
          </mxGeometry>
        </mxCell>
        <mxCell id="nML3Dv_sA6puckK2hfbV-3" value="AI Module" style="swimlane;whiteSpace=wrap;html=1;" vertex="1" parent="nML3Dv_sA6puckK2hfbV-2">
          <mxGeometry x="155.48387096774195" y="90" width="1062.47311827957" height="230" as="geometry" />
        </mxCell>
        <mxCell id="nML3Dv_sA6puckK2hfbV-31" value="Vertical Container" style="swimlane;whiteSpace=wrap;html=1;" vertex="1" parent="nML3Dv_sA6puckK2hfbV-3">
          <mxGeometry x="633.9962068965518" y="40" width="404.7968965517241" height="160" as="geometry" />
        </mxCell>
        <mxCell id="nML3Dv_sA6puckK2hfbV-53" value="&lt;font style=&quot;font-size: 26px;&quot;&gt;Primary Chatbot&lt;/font&gt;" style="text;html=1;align=center;verticalAlign=middle;resizable=0;points=[];autosize=1;strokeColor=none;fillColor=none;" vertex="1" parent="nML3Dv_sA6puckK2hfbV-31">
          <mxGeometry x="69.25555431961438" y="60" width="210" height="40" as="geometry" />
        </mxCell>
        <mxCell id="nML3Dv_sA6puckK2hfbV-37" value="Analysis Component" style="swimlane;whiteSpace=wrap;html=1;" vertex="1" parent="nML3Dv_sA6puckK2hfbV-3">
          <mxGeometry x="79.9732183908046" y="30" width="389.1622784575454" height="180" as="geometry" />
        </mxCell>
        <mxCell id="nML3Dv_sA6puckK2hfbV-39" value="Anamoly Detection" style="text;html=1;align=center;verticalAlign=middle;whiteSpace=wrap;rounded=0;" vertex="1" parent="nML3Dv_sA6puckK2hfbV-37">
          <mxGeometry x="-26.35496292176491" y="35" width="389.602816091954" height="30" as="geometry" />
        </mxCell>
        <mxCell id="nML3Dv_sA6puckK2hfbV-43" value="" style="group" vertex="1" connectable="0" parent="nML3Dv_sA6puckK2hfbV-37">
          <mxGeometry x="-79.9705376344086" y="30" width="469.13281609195406" height="150" as="geometry" />
        </mxCell>
        <mxCell id="nML3Dv_sA6puckK2hfbV-40" value="Descriptive Analysis" style="text;html=1;align=center;verticalAlign=middle;whiteSpace=wrap;rounded=0;" vertex="1" parent="nML3Dv_sA6puckK2hfbV-43">
          <mxGeometry x="25.91442528735637" y="40" width="415.51724137931035" height="30" as="geometry" />
        </mxCell>
        <mxCell id="nML3Dv_sA6puckK2hfbV-41" value="Diagnostic" style="text;html=1;align=center;verticalAlign=middle;whiteSpace=wrap;rounded=0;" vertex="1" parent="nML3Dv_sA6puckK2hfbV-43">
          <mxGeometry y="80" width="469.132816091954" height="30" as="geometry" />
        </mxCell>
        <mxCell id="nML3Dv_sA6puckK2hfbV-42" value="Predictive Analysis" style="text;html=1;align=center;verticalAlign=middle;whiteSpace=wrap;rounded=0;" vertex="1" parent="nML3Dv_sA6puckK2hfbV-43">
          <mxGeometry x="25.91442528735637" y="120" width="429.36781609195396" height="30" as="geometry" />
        </mxCell>
        <mxCell id="nML3Dv_sA6puckK2hfbV-30" style="edgeStyle=orthogonalEdgeStyle;rounded=0;orthogonalLoop=1;jettySize=auto;html=1;exitX=0.5;exitY=1;exitDx=0;exitDy=0;" edge="1" parent="nML3Dv_sA6puckK2hfbV-2" source="nML3Dv_sA6puckK2hfbV-13">
          <mxGeometry relative="1" as="geometry">
            <mxPoint x="1788.0645161290322" y="460" as="targetPoint" />
          </mxGeometry>
        </mxCell>
        <mxCell id="nML3Dv_sA6puckK2hfbV-13" value="Filters Component" style="swimlane;whiteSpace=wrap;html=1;" vertex="1" parent="nML3Dv_sA6puckK2hfbV-2">
          <mxGeometry x="1310" y="90" width="361.08" height="200" as="geometry" />
        </mxCell>
        <mxCell id="nML3Dv_sA6puckK2hfbV-25" value="&lt;font style=&quot;font-size: 22px;&quot;&gt;Dynamic Filters&lt;/font&gt;" style="text;html=1;align=center;verticalAlign=middle;resizable=0;points=[];autosize=1;strokeColor=none;fillColor=none;" vertex="1" parent="nML3Dv_sA6puckK2hfbV-13">
          <mxGeometry x="90.53863366703744" y="80" width="180" height="40" as="geometry" />
        </mxCell>
        <mxCell id="nML3Dv_sA6puckK2hfbV-50" style="edgeStyle=orthogonalEdgeStyle;rounded=0;orthogonalLoop=1;jettySize=auto;html=1;exitX=0.403;exitY=0.221;exitDx=0;exitDy=0;exitPerimeter=0;entryX=0.094;entryY=1;entryDx=0;entryDy=0;entryPerimeter=0;" edge="1" parent="nML3Dv_sA6puckK2hfbV-2" source="nML3Dv_sA6puckK2hfbV-46">
          <mxGeometry relative="1" as="geometry">
            <mxPoint x="512.4712643678163" y="824.3499999999999" as="sourcePoint" />
            <mxPoint x="521.351716722284" y="590" as="targetPoint" />
          </mxGeometry>
        </mxCell>
        <mxCell id="nML3Dv_sA6puckK2hfbV-67" style="edgeStyle=orthogonalEdgeStyle;rounded=0;orthogonalLoop=1;jettySize=auto;html=1;exitX=0.75;exitY=1;exitDx=0;exitDy=0;" edge="1" parent="nML3Dv_sA6puckK2hfbV-2" source="nML3Dv_sA6puckK2hfbV-63">
          <mxGeometry relative="1" as="geometry">
            <mxPoint x="2164.997701149425" y="450" as="targetPoint" />
          </mxGeometry>
        </mxCell>
        <mxCell id="nML3Dv_sA6puckK2hfbV-63" value="" style="whiteSpace=wrap;html=1;aspect=fixed;" vertex="1" parent="nML3Dv_sA6puckK2hfbV-2">
          <mxGeometry x="1970" y="60" width="260" height="260" as="geometry" />
        </mxCell>
        <mxCell id="nML3Dv_sA6puckK2hfbV-65" value="&lt;font style=&quot;font-size: 20px;&quot;&gt;Scrapper&lt;/font&gt;" style="text;html=1;align=center;verticalAlign=middle;whiteSpace=wrap;rounded=0;" vertex="1" parent="nML3Dv_sA6puckK2hfbV-2">
          <mxGeometry x="1990" y="155" width="210" height="30" as="geometry" />
        </mxCell>
        <mxCell id="nML3Dv_sA6puckK2hfbV-21" style="edgeStyle=orthogonalEdgeStyle;rounded=0;orthogonalLoop=1;jettySize=auto;html=1;exitX=0.25;exitY=0;exitDx=0;exitDy=0;" edge="1" parent="nML3Dv_sA6puckK2hfbV-26" source="nML3Dv_sA6puckK2hfbV-20">
          <mxGeometry relative="1" as="geometry">
            <mxPoint x="641.3709677419354" y="320" as="targetPoint" />
          </mxGeometry>
        </mxCell>
        <mxCell id="nML3Dv_sA6puckK2hfbV-29" style="edgeStyle=orthogonalEdgeStyle;rounded=0;orthogonalLoop=1;jettySize=auto;html=1;exitX=0.75;exitY=0;exitDx=0;exitDy=0;" edge="1" parent="nML3Dv_sA6puckK2hfbV-26" source="nML3Dv_sA6puckK2hfbV-20">
          <mxGeometry relative="1" as="geometry">
            <mxPoint x="1716.8010752688172" y="310" as="targetPoint" />
          </mxGeometry>
        </mxCell>
        <mxCell id="nML3Dv_sA6puckK2hfbV-57" value="Text" style="edgeLabel;html=1;align=center;verticalAlign=middle;resizable=0;points=[];" vertex="1" connectable="0" parent="nML3Dv_sA6puckK2hfbV-29">
          <mxGeometry x="0.4035" y="-1" relative="1" as="geometry">
            <mxPoint as="offset" />
          </mxGeometry>
        </mxCell>
        <mxCell id="nML3Dv_sA6puckK2hfbV-59" value="Text" style="edgeLabel;html=1;align=center;verticalAlign=middle;resizable=0;points=[];" vertex="1" connectable="0" parent="nML3Dv_sA6puckK2hfbV-29">
          <mxGeometry x="0.8644" y="-5" relative="1" as="geometry">
            <mxPoint y="-1" as="offset" />
          </mxGeometry>
        </mxCell>
        <mxCell id="nML3Dv_sA6puckK2hfbV-20" value="&lt;font style=&quot;font-size: 48px;&quot;&gt;APIs&lt;/font&gt;" style="rounded=0;whiteSpace=wrap;html=1;" vertex="1" parent="nML3Dv_sA6puckK2hfbV-26">
          <mxGeometry x="103.65591397849461" y="460" width="2150.860215053763" height="150" as="geometry" />
        </mxCell>
        <mxCell id="nML3Dv_sA6puckK2hfbV-62" style="edgeStyle=orthogonalEdgeStyle;rounded=0;orthogonalLoop=1;jettySize=auto;html=1;exitX=0.25;exitY=1;exitDx=0;exitDy=0;" edge="1" parent="nML3Dv_sA6puckK2hfbV-26" source="nML3Dv_sA6puckK2hfbV-13" target="nML3Dv_sA6puckK2hfbV-20">
          <mxGeometry relative="1" as="geometry" />
        </mxCell>
        <mxCell id="nML3Dv_sA6puckK2hfbV-66" style="edgeStyle=orthogonalEdgeStyle;rounded=0;orthogonalLoop=1;jettySize=auto;html=1;exitX=0.25;exitY=1;exitDx=0;exitDy=0;entryX=0.84;entryY=0.03;entryDx=0;entryDy=0;entryPerimeter=0;" edge="1" parent="nML3Dv_sA6puckK2hfbV-26" source="nML3Dv_sA6puckK2hfbV-63" target="nML3Dv_sA6puckK2hfbV-20">
          <mxGeometry relative="1" as="geometry" />
        </mxCell>
        <mxCell id="nML3Dv_sA6puckK2hfbV-38" value="&lt;span style=&quot;color: rgba(0, 0, 0, 0); font-family: monospace; font-size: 0px; text-align: start;&quot;&gt;%3CmxGraphModel%3E%3Croot%3E%3CmxCell%20id%3D%220%22%2F%3E%3CmxCell%20id%3D%221%22%20parent%3D%220%22%2F%3E%3CmxCell%20id%3D%222%22%20value%3D%22Anamoly%20Detection%22%20style%3D%22text%3Bhtml%3D1%3Balign%3Dcenter%3BverticalAlign%3Dmiddle%3BwhiteSpace%3Dwrap%3Brounded%3D0%3B%22%20vertex%3D%221%22%20parent%3D%221%22%3E%3CmxGeometry%20x%3D%22180.96806451612903%22%20y%3D%22170%22%20width%3D%22281.29%22%20height%3D%2230%22%20as%3D%22geometry%22%2F%3E%3C%2FmxCell%3E%3CmxCell%20id%3D%223%22%20value%3D%22Descriptive%20Analysis%22%20style%3D%22text%3Bhtml%3D1%3Balign%3Dcenter%3BverticalAlign%3Dmiddle%3BwhiteSpace%3Dwrap%3Brounded%3D0%3B%22%20vertex%3D%221%22%20parent%3D%221%22%3E%3CmxGeometry%20x%3D%22162.25806451612902%22%20y%3D%22210%22%20width%3D%22300%22%20height%3D%2230%22%20as%3D%22geometry%22%2F%3E%3C%2FmxCell%3E%3CmxCell%20id%3D%224%22%20value%3D%22Diagnostic%22%20style%3D%22text%3Bhtml%3D1%3Balign%3Dcenter%3BverticalAlign%3Dmiddle%3BwhiteSpace%3Dwrap%3Brounded%3D0%3B%22%20vertex%3D%221%22%20parent%3D%221%22%3E%3CmxGeometry%20x%3D%22143.54806451612902%22%20y%3D%22250%22%20width%3D%22338.71%22%20height%3D%2230%22%20as%3D%22geometry%22%2F%3E%3C%2FmxCell%3E%3CmxCell%20id%3D%225%22%20value%3D%22Predictive%20Analysis%22%20style%3D%22text%3Bhtml%3D1%3Balign%3Dcenter%3BverticalAlign%3Dmiddle%3BwhiteSpace%3Dwrap%3Brounded%3D0%3B%22%20vertex%3D%221%22%20parent%3D%221%22%3E%3CmxGeometry%20x%3D%22162.25806451612902%22%20y%3D%22290%22%20width%3D%22310%22%20height%3D%2230%22%20as%3D%22geometry%22%2F%3E%3C%2FmxCell%3E%3C%2Froot%3E%3C%2FmxGraphModel%3E&lt;/span&gt;&lt;span style=&quot;color: rgba(0, 0, 0, 0); font-family: monospace; font-size: 0px; text-align: start;&quot;&gt;%3CmxGraphModel%3E%3Croot%3E%3CmxCell%20id%3D%220%22%2F%3E%3CmxCell%20id%3D%221%22%20parent%3D%220%22%2F%3E%3CmxCell%20id%3D%222%22%20value%3D%22Anamoly%20Detection%22%20style%3D%22text%3Bhtml%3D1%3Balign%3Dcenter%3BverticalAlign%3Dmiddle%3BwhiteSpace%3Dwrap%3Brounded%3D0%3B%22%20vertex%3D%221%22%20parent%3D%221%22%3E%3CmxGeometry%20x%3D%22180.96806451612903%22%20y%3D%22170%22%20width%3D%22281.29%22%20height%3D%2230%22%20as%3D%22geometry%22%2F%3E%3C%2FmxCell%3E%3CmxCell%20id%3D%223%22%20value%3D%22Descriptive%20Analysis%22%20style%3D%22text%3Bhtml%3D1%3Balign%3Dcenter%3BverticalAlign%3Dmiddle%3BwhiteSpace%3Dwrap%3Brounded%3D0%3B%22%20vertex%3D%221%22%20parent%3D%221%22%3E%3CmxGeometry%20x%3D%22162.25806451612902%22%20y%3D%22210%22%20width%3D%22300%22%20height%3D%2230%22%20as%3D%22geometry%22%2F%3E%3C%2FmxCell%3E%3CmxCell%20id%3D%224%22%20value%3D%22Diagnostic%22%20style%3D%22text%3Bhtml%3D1%3Balign%3Dcenter%3BverticalAlign%3Dmiddle%3BwhiteSpace%3Dwrap%3Brounded%3D0%3B%22%20vertex%3D%221%22%20parent%3D%221%22%3E%3CmxGeometry%20x%3D%22143.54806451612902%22%20y%3D%22250%22%20width%3D%22338.71%22%20height%3D%2230%22%20as%3D%22geometry%22%2F%3E%3C%2FmxCell%3E%3CmxCell%20id%3D%225%22%20value%3D%22Predictive%20Analysis%22%20style%3D%22text%3Bhtml%3D1%3Balign%3Dcenter%3BverticalAlign%3Dmiddle%3BwhiteSpace%3Dwrap%3Brounded%3D0%3B%22%20vertex%3D%221%22%20parent%3D%221%22%3E%3CmxGeometry%20x%3D%22162.25806451612902%22%20y%3D%22290%22%20width%3D%22310%22%20height%3D%2230%22%20as%3D%22geometry%22%2F%3E%3C%2FmxCell%3E%3C%2Froot%3E%3C%2FmxGraphModel%3E&lt;/span&gt;" style="text;html=1;align=center;verticalAlign=middle;resizable=0;points=[];autosize=1;strokeColor=none;fillColor=none;" vertex="1" parent="nML3Dv_sA6puckK2hfbV-55">
          <mxGeometry x="304.71264367816093" y="188" width="20" height="30" as="geometry" />
        </mxCell>
        <mxCell id="nML3Dv_sA6puckK2hfbV-45" value="" style="group" vertex="1" connectable="0" parent="nML3Dv_sA6puckK2hfbV-55">
          <mxGeometry x="166.20689655172413" y="840" width="997.2413793103448" height="130" as="geometry" />
        </mxCell>
        <mxCell id="nML3Dv_sA6puckK2hfbV-46" value="" style="shape=cylinder3;whiteSpace=wrap;html=1;boundedLbl=1;backgroundOutline=1;size=15;" vertex="1" parent="nML3Dv_sA6puckK2hfbV-45">
          <mxGeometry x="-27.701149425287355" width="997.2413793103448" height="130" as="geometry" />
        </mxCell>
        <mxCell id="nML3Dv_sA6puckK2hfbV-47" value="ClickHouse" style="text;html=1;align=center;verticalAlign=middle;whiteSpace=wrap;rounded=0;" vertex="1" parent="nML3Dv_sA6puckK2hfbV-45">
          <mxGeometry x="268.48806366047745" y="54.888888888888886" width="460.2652519893899" height="21.666666666666668" as="geometry" />
        </mxCell>
        <mxCell id="nML3Dv_sA6puckK2hfbV-49" style="edgeStyle=orthogonalEdgeStyle;rounded=0;orthogonalLoop=1;jettySize=auto;html=1;exitX=0.25;exitY=1;exitDx=0;exitDy=0;" edge="1" parent="nML3Dv_sA6puckK2hfbV-55" source="nML3Dv_sA6puckK2hfbV-20" target="nML3Dv_sA6puckK2hfbV-46">
          <mxGeometry relative="1" as="geometry" />
        </mxCell>
        <mxCell id="nML3Dv_sA6puckK2hfbV-51" style="edgeStyle=orthogonalEdgeStyle;rounded=0;orthogonalLoop=1;jettySize=auto;html=1;exitX=0.5;exitY=0;exitDx=0;exitDy=0;exitPerimeter=0;entryX=0.761;entryY=0.964;entryDx=0;entryDy=0;entryPerimeter=0;" edge="1" parent="nML3Dv_sA6puckK2hfbV-55" source="nML3Dv_sA6puckK2hfbV-7" target="nML3Dv_sA6puckK2hfbV-20">
          <mxGeometry relative="1" as="geometry" />
        </mxCell>
        <mxCell id="nML3Dv_sA6puckK2hfbV-52" style="edgeStyle=orthogonalEdgeStyle;rounded=0;orthogonalLoop=1;jettySize=auto;html=1;exitX=0.75;exitY=1;exitDx=0;exitDy=0;entryX=0.403;entryY=0.154;entryDx=0;entryDy=0;entryPerimeter=0;" edge="1" parent="nML3Dv_sA6puckK2hfbV-55" source="nML3Dv_sA6puckK2hfbV-20" target="nML3Dv_sA6puckK2hfbV-7">
          <mxGeometry relative="1" as="geometry" />
        </mxCell>
        <mxCell id="nML3Dv_sA6puckK2hfbV-72" style="edgeStyle=orthogonalEdgeStyle;rounded=0;orthogonalLoop=1;jettySize=auto;html=1;exitX=0;exitY=0.5;exitDx=0;exitDy=0;exitPerimeter=0;" edge="1" parent="1" source="nML3Dv_sA6puckK2hfbV-68">
          <mxGeometry relative="1" as="geometry">
            <mxPoint x="2780" y="354.66666666666674" as="targetPoint" />
          </mxGeometry>
        </mxCell>
        <mxCell id="nML3Dv_sA6puckK2hfbV-68" value="" style="shape=cylinder3;whiteSpace=wrap;html=1;boundedLbl=1;backgroundOutline=1;size=15;" vertex="1" parent="1">
          <mxGeometry x="3010" y="210" width="150" height="290" as="geometry" />
        </mxCell>
        <mxCell id="nML3Dv_sA6puckK2hfbV-69" value="&lt;font style=&quot;font-size: 20px;&quot;&gt;Redis&lt;/font&gt;" style="text;html=1;align=center;verticalAlign=middle;whiteSpace=wrap;rounded=0;" vertex="1" parent="1">
          <mxGeometry x="3055" y="350" width="60" height="30" as="geometry" />
        </mxCell>
        <mxCell id="nML3Dv_sA6puckK2hfbV-71" style="edgeStyle=orthogonalEdgeStyle;rounded=0;orthogonalLoop=1;jettySize=auto;html=1;exitX=1;exitY=0.5;exitDx=0;exitDy=0;entryX=0;entryY=0;entryDx=0;entryDy=210;entryPerimeter=0;" edge="1" parent="1" source="nML3Dv_sA6puckK2hfbV-2" target="nML3Dv_sA6puckK2hfbV-68">
          <mxGeometry relative="1" as="geometry" />
        </mxCell>
      </root>
    </mxGraphModel>
  </diagram>
</mxfile>
